<?xml version="1.0" encoding="UTF-8"?><svg id="a" xmlns="http://www.w3.org/2000/svg" xmlns:xlink="http://www.w3.org/1999/xlink" viewBox="0 0 387.8 358.47"><defs><clipPath id="b"><rect x="120.34" y="50.08" width="267.46" height="232.97" fill="none"/></clipPath></defs><path d="M116.25,358.47c-.33,0-.53-.04-.65-.1-1.2-.6-2.39-1.78-4.53-3.93-1.98-1.98-4.98-4.98-9.64-9.15-8.84-7.91-52.6-48.13-69.31-65.35-14.86-15.31-26.26-26.35-30.48-29.52l-.58-.43v-.72c-.02-.49-.99-49.34-.01-78.71,1.18-35.37,.21-56.77,0-60.7-.36-6.83-.2-21.89-.08-32.88,.04-4.24,.08-7.88,.08-10.22C1.04,58.86,.16,14.89,.06,10.31c-.02,0-.04-.02-.06-.03l.06-.33s0-.02,0-.03h0l.43-2.5L201.38,0h.12s164.99,19.95,164.99,19.95v1.31c0,.19-.02,19.65-1.98,46.59-1.29,17.74-3.45,36.19-4.75,47.22-.66,5.63-1.18,10.08-1.18,11.02,0,3.32-.14,4.61-3.18,9.66-2.42,4.03-2.32,6.95-2.27,8.52,0,.23,.01,.43,.01,.61,0,1.47-.94,3.37-1.44,4.28,.15,1.38,.63,5.64,1.42,10.83,.59,3.8,.83,8.12,1.03,11.58,.14,2.44,.26,4.54,.45,5.71,.24,1.46,.62,3.32,.98,5.13,.37,1.84,.75,3.74,1,5.26,.3,1.79,1.12,27.76,2.26,64.25,.55,17.78,1.03,33.13,1.22,37.3l.05,1.15-1.1,.34c-.4,.12-40.73,12.55-97.95,28.69-121.25,34.2-141.18,39.07-144.81,39.07Zm.4-2.92s.03,.02,.04,.02c.08,0,.17-.01,.27-.03h-.31Zm2.55-316.59c-.11,4.69-.55,20-.96,30.83-.52,13.52-4.46,101.57-4.95,107.86-.11,1.44-.27,2.76-.41,3.93-.56,4.66-.44,5.54,.82,5.9,1.57,.45,2.3,1.37,2.63,2.07,1,2.07-.06,4.64-.92,6.71l-.25,.62c-.23,.58-.48,1.05-.72,1.51-.78,1.48-1.52,2.87-1.15,8.73,.07,1.14,.2,3.13,.38,5.76,1.07,16.05,3.58,53.65,3.58,68.51,0,16.73,.47,71.13,.49,74.04,12.8-2.3,106.29-28.66,142.51-38.88,51.95-14.65,89.97-26.25,96.78-28.34-.22-5.4-.66-19.76-1.17-36.2-.81-26.14-1.93-61.95-2.22-63.85-.24-1.46-.62-3.34-.98-5.16-.37-1.83-.74-3.72-.99-5.22-.22-1.32-.34-3.4-.49-6.03-.19-3.4-.43-7.64-1-11.3-.98-6.39-1.49-11.4-1.49-11.45l-.05-.49,.25-.42c.51-.86,1.27-2.47,1.27-3.19,0-.15,0-.32-.01-.51-.06-1.74-.17-5.36,2.69-10.14,2.76-4.59,2.76-5.34,2.76-8.14,0-1.07,.39-4.45,1.2-11.37,1.29-11,3.45-29.41,4.74-47.09,1.54-21.21,1.88-37.75,1.95-43.84-6.54,.62-48.18,3.73-71.04,5.43-6.39,.48-11,.82-12.4,.93-6.11,.47-21.88,.99-34.73,.99-8.83,0-46.76,2.52-74.46,4.35-10.52,.7-19.61,1.3-24.35,1.58-13.4,.79-23.76,1.58-27.31,1.87ZM4,248.49c4.76,3.76,15.69,14.37,30.25,29.38,16.66,17.16,60.33,57.31,69.16,65.2,4.73,4.23,7.76,7.26,9.76,9.26,.61,.61,1.13,1.13,1.6,1.58-.08-9.47-.48-57.08-.48-72.54s-2.5-52.29-3.57-68.31c-.18-2.63-.31-4.63-.38-5.77-.42-6.69,.55-8.52,1.49-10.3,.21-.4,.41-.78,.59-1.22l.27-.65c.53-1.28,1.41-3.41,.99-4.28-.04-.08-.16-.33-.78-.51-3.92-1.12-3.47-4.82-2.95-9.11,.14-1.14,.29-2.43,.4-3.8,.48-6.27,4.42-94.23,4.94-107.75,.44-11.4,.87-26.72,.97-30.98-5.66-1.64-32.49-9.26-58.62-14.49C33.29,19.34,11.2,13.63,3.05,11.25c.16,8,.96,47.99,.96,55.51,0,2.35-.04,6-.08,10.25-.12,10.96-.27,25.96,.08,32.7,.21,3.95,1.18,25.46,0,60.95-.91,27.35-.13,71.7-.01,77.84ZM9.8,10.05c10.13,2.73,27.99,7.16,48.41,11.25,27.92,5.58,56.63,13.89,59.7,14.79,1.88-.15,13.2-1.06,28.44-1.96,4.73-.28,13.81-.88,24.33-1.58,27.74-1.84,65.73-4.36,74.66-4.36,12.78,0,28.44-.52,34.5-.98,1.4-.11,6.01-.45,12.41-.93,16.83-1.26,47.42-3.54,62.64-4.74L201.26,2.97,9.8,10.05Z" fill="#010101"/><g><path d="M22.59,170.46c.92,2.66-.57,4.7-3.32,5.64l-3.63,1.25,1.87,5.42-1.94,.67-4.64-13.47,5.57-1.92c2.75-.95,5.18-.25,6.09,2.4Zm-2.05,.71c-.53-1.54-1.83-2.06-3.49-1.49l-3.63,1.25,1.66,4.81,3.63-1.25c1.65-.57,2.36-1.78,1.83-3.32Z" fill="#1d1d1b"/><path d="M33.69,173.34l-6.29,2.17-.05,3.88-1.85,.64,.23-15.15,2.6-.9,9.69,11.73-1.85,.64-2.48-3Zm-1.28-1.57l-4.85-5.85-.11,7.55,4.96-1.71Z" fill="#1d1d1b"/><path d="M46.75,157.64l4.64,13.47-2.26,.78-11.11-8.17,3.69,10.72-1.85,.64-4.64-13.47,2.26-.78,11.11,8.17-3.69-10.72,1.85-.64Z" fill="#1d1d1b"/><path d="M61.41,163.8l-6.29,2.16-.05,3.88-1.85,.64,.23-15.15,2.6-.9,9.69,11.73-1.85,.64-2.48-3Zm-1.28-1.57l-4.85-5.85-.11,7.55,4.96-1.71Z" fill="#1d1d1b"/><path d="M75.43,157.3l1.92-.66c.79,3.77-1.43,6.22-4.29,7.2-3.47,1.19-7.24-.02-8.85-4.69-1.61-4.67,.62-7.95,4.08-9.14,2.84-.98,6.11-.42,7.82,3.03l-1.92,.66c-1.3-2.32-3.46-2.65-5.31-2.01-2.41,.83-3.86,3.16-2.62,6.75,1.24,3.59,3.81,4.53,6.22,3.71,1.85-.64,3.36-2.22,2.95-4.85Z" fill="#1d1d1b"/><path d="M90.58,155.61l.62,1.8-9.77,3.36-4.64-13.47,9.59-3.3,.62,1.8-7.65,2.63,1.27,3.7,6.22-2.14,.62,1.8-6.22,2.14,1.51,4.38,7.83-2.7Z" fill="#1d1d1b"/><path d="M99.93,150.54l-6.29,2.17-.05,3.88-1.85,.64,.23-15.15,2.6-.9,9.69,11.73-1.85,.64-2.48-3Zm-1.28-1.57l-4.85-5.85-.11,7.55,4.96-1.71Z" fill="#1d1d1b"/></g><g clip-path="url(#b)"><g><path d="M159.58,72.65l-6.62-.64-1.65,3.5-1.95-.19,6.49-13.69,2.74,.26,3.95,14.69-1.95-.19-1.01-3.76Zm-.52-1.96l-1.99-7.33-3.23,6.83,5.22,.5Z" fill="#1d1d1b"/><path d="M177.98,63.77l-1.37,14.18-2.38-.23-6.72-12.04-1.09,11.29-1.95-.19,1.37-14.18,2.38,.23,6.72,12.04,1.09-11.29,1.95,.19Z" fill="#1d1d1b"/><path d="M193.6,65.27l-1.37,14.18-2.38-.23-6.72-12.04-1.09,11.29-1.95-.19,1.37-14.18,2.38,.23,6.72,12.04,1.09-11.29,1.95,.19Z" fill="#1d1d1b"/><path d="M204.38,76.96l-6.62-.64-1.66,3.5-1.95-.19,6.49-13.69,2.74,.26,3.95,14.69-1.95-.19-1.01-3.76Zm-.52-1.96l-1.99-7.33-3.23,6.83,5.22,.5Z" fill="#1d1d1b"/><path d="M227.32,68.52l-1.37,14.18-2.38-.23-6.72-12.04-1.09,11.29-1.95-.19,1.37-14.18,2.38,.23,6.72,12.04,1.09-11.29,1.95,.19Z" fill="#1d1d1b"/><path d="M239.9,82.13l-.18,1.89-10.29-.99,1.37-14.18,10.1,.97-.18,1.89-8.05-.78-.38,3.9,6.54,.63-.18,1.89-6.54-.63-.44,4.61,8.24,.79Z" fill="#1d1d1b"/><path d="M252.39,83.53l-.16,1.7-11.37-1.09,.15-1.61,9.44-10.06-8.21-.79,.16-1.7,10.72,1.03-.16,1.61-9.44,10.06,8.85,.85Z" fill="#1d1d1b"/><path d="M268.17,72.45l-1.37,14.18-2.04-.2,.64-6.64-8-.77-.64,6.64-2.04-.2,1.37-14.18,2.04,.2-.54,5.65,8,.77,.54-5.65,2.04,.2Z" fill="#1d1d1b"/><path d="M283.79,73.96l-1.37,14.18-2.38-.23-6.72-12.04-1.09,11.29-1.95-.19,1.37-14.18,2.38,.23,6.72,12.04,1.09-11.29,1.95,.19Z" fill="#1d1d1b"/><path d="M294.58,85.64l-6.62-.64-1.66,3.5-1.95-.19,6.49-13.69,2.74,.26,3.95,14.69-1.95-.19-1.01-3.76Zm-.52-1.96l-1.98-7.33-3.23,6.83,5.22,.5Z" fill="#1d1d1b"/><path d="M309.74,76.46v.09s-5.64,7.59-5.64,7.59l-.58,6.03-2.04-.2,.58-6.03-4.06-8.52v-.09s2.24,.21,2.24,.21l3.11,6.71,4.28-6,2.12,.2Z" fill="#1d1d1b"/><path d="M317.7,87.87l-6.62-.64-1.65,3.5-1.95-.19,6.49-13.69,2.74,.26,3.95,14.69-1.95-.19-1.01-3.76Zm-.52-1.96l-1.98-7.33-3.23,6.83,5.22,.5Z" fill="#1d1d1b"/></g><g><path d="M159.88,93.67l2.02,.19c-.84,3.76-3.89,5.07-6.89,4.78-3.65-.35-6.58-3.02-6.11-7.94,.47-4.92,3.86-6.98,7.51-6.62,2.99,.29,5.73,2.15,5.85,6l-2.02-.19c-.22-2.66-2.05-3.84-4-4.03-2.53-.24-4.82,1.27-5.18,5.05-.36,3.78,1.59,5.71,4.12,5.95,1.95,.19,3.97-.63,4.7-3.19Z" fill="#1d1d1b"/><path d="M177.35,86.29l-1.37,14.18-2.04-.2,.64-6.64-8-.77-.64,6.64-2.04-.2,1.37-14.18,2.04,.2-.54,5.65,8,.77,.54-5.65,2.04,.2Z" fill="#1d1d1b"/><path d="M190.77,101.8v.09s-2.35-.23-2.35-.23l-3.16-6.45-3.16-.3-.59,6.09-2.04-.2,1.37-14.18,6.26,.6c2.55,.25,4.62,1.74,4.36,4.5-.23,2.36-1.96,3.5-4.05,3.62l3.37,6.45Zm-8.51-8.59l4.22,.41c1.42,.14,2.66-.49,2.82-2.1,.15-1.61-.95-2.46-2.37-2.59l-4.22-.41-.45,4.69Z" fill="#1d1d1b"/><path d="M196.63,88.14l-1.37,14.18-2.04-.2,1.37-14.18,2.04,.2Z" fill="#1d1d1b"/><path d="M204.37,90.44c-1.55-.15-2.93,.48-3.06,1.88-.14,1.42,.74,2.04,3.16,2.69l.26,.06c3.2,.9,4.62,2.12,4.4,4.43-.23,2.38-2.44,4.12-5.69,3.8s-5.3-2.29-5.15-5.19l2.04,.2c-.04,1.83,1.29,3.08,3.33,3.28,1.95,.19,3.23-.64,3.36-2.04,.13-1.4-.78-2-2.92-2.61l-.21-.06c-3.28-.87-4.94-2.02-4.69-4.59,.25-2.55,2.64-3.83,5.4-3.56,2.88,.28,4.87,2.13,4.75,4.6l-2.02-.2c.02-1.41-1.19-2.52-2.97-2.69Z" fill="#1d1d1b"/><path d="M222.69,92.56l-4.88-.47-1.18,12.29-2.04-.2,1.18-12.29-5.11-.49,.18-1.89,12.03,1.16-.18,1.89Z" fill="#1d1d1b"/><path d="M226.75,91.04l-1.37,14.18-2.04-.2,1.37-14.18,2.04,.2Z" fill="#1d1d1b"/><path d="M237.54,102.73l-6.62-.64-1.65,3.5-1.95-.19,6.49-13.69,2.74,.26,3.95,14.69-1.95-.19-1.01-3.76Zm-.52-1.96l-1.99-7.33-3.23,6.83,5.22,.5Z" fill="#1d1d1b"/><path d="M255.93,93.85l-1.37,14.18-2.38-.23-6.72-12.04-1.09,11.29-1.95-.19,1.37-14.18,2.38,.23,6.72,12.04,1.09-11.29,1.95,.19Z" fill="#1d1d1b"/><path d="M276.04,95.79l-1.37,14.18-2.04-.2,.64-6.64-8-.77-.64,6.64-2.04-.2,1.37-14.18,2.04,.2-.54,5.65,8,.77,.54-5.65,2.04,.2Z" fill="#1d1d1b"/><path d="M284.36,111.1c-3.63-.35-6.52-3.01-6.05-7.93,.47-4.9,3.82-6.98,7.45-6.63,3.63,.33,6.53,3,6.05,7.93-.45,4.92-3.82,6.98-7.45,6.63Zm5.3-6.84c.37-3.8-1.55-5.7-4.07-5.95-2.5-.24-4.76,1.26-5.12,5.06s1.57,5.7,4.07,5.94c2.51,.24,4.76-1.26,5.12-5.06Z" fill="#1d1d1b"/><path d="M303.79,110.87l-.18,1.89-9.53-.92,1.37-14.18,2.04,.2-1.18,12.29,7.49,.72Z" fill="#1d1d1b"/><path d="M316.08,112.24l-.16,1.7-11.36-1.09,.15-1.61,9.44-10.06-8.21-.79,.16-1.7,10.72,1.03-.16,1.61-9.44,10.06,8.85,.85Z" fill="#1d1d1b"/><path d="M328.89,113.29l-.18,1.89-10.29-.99,1.37-14.18,10.1,.97-.18,1.89-8.06-.78-.38,3.9,6.54,.63-.18,1.89-6.54-.63-.44,4.61,8.24,.79Z" fill="#1d1d1b"/></g><g><path d="M149.83,108.13l-.38,3.9,6.54,.63-.18,1.89-6.54-.63-.63,6.5-2.04-.2,1.37-14.18,10.1,.97-.18,1.89-8.06-.78Z" fill="#1d1d1b"/><path d="M168.34,120.41l-.18,1.89-9.53-.92,1.37-14.18,2.04,.2-1.18,12.29,7.49,.72Z" fill="#1d1d1b"/><path d="M175.84,123.23c-3.63-.35-6.52-3.01-6.05-7.93,.47-4.9,3.82-6.98,7.45-6.63,3.63,.33,6.52,2.99,6.05,7.93-.45,4.92-3.82,6.98-7.45,6.63Zm5.3-6.84c.37-3.8-1.55-5.7-4.06-5.95-2.5-.24-4.76,1.26-5.13,5.06-.37,3.8,1.57,5.71,4.07,5.95,2.51,.24,4.76-1.26,5.12-5.06Z" fill="#1d1d1b"/><path d="M196.86,124.97v.09s-2.35-.23-2.35-.23l-3.16-6.45-3.16-.3-.59,6.09-2.04-.2,1.37-14.18,6.26,.6c2.55,.25,4.62,1.74,4.36,4.5-.23,2.36-1.96,3.5-4.05,3.62l3.37,6.45Zm-8.51-8.59l4.22,.41c1.42,.14,2.66-.49,2.82-2.09,.15-1.61-.95-2.46-2.37-2.59l-4.22-.41-.45,4.69Z" fill="#1d1d1b"/><path d="M202.72,111.31l-1.37,14.18-2.04-.2,1.37-14.18,2.04,.2Z" fill="#1d1d1b"/><path d="M213.5,123l-6.62-.64-1.65,3.5-1.95-.19,6.49-13.69,2.74,.26,3.95,14.69-1.95-.19-1.01-3.76Zm-.52-1.96l-1.98-7.33-3.23,6.83,5.22,.5Z" fill="#1d1d1b"/><path d="M231.9,114.12l-1.37,14.18-2.38-.23-6.72-12.04-1.09,11.29-1.95-.19,1.37-14.18,2.38,.23,6.72,12.04,1.09-11.29,1.95,.19Z" fill="#1d1d1b"/><path d="M252,116.06l-1.37,14.18-2.04-.2,.64-6.64-8-.77-.64,6.64-2.04-.2,1.37-14.18,2.04,.2-.54,5.65,8,.77,.54-5.65,2.04,.2Z" fill="#1d1d1b"/><path d="M254.55,124.83l.81-8.45,2.04,.2-.83,8.64c-.26,2.7,1.02,4.09,3.14,4.29s3.64-.91,3.9-3.61l.83-8.64,2.04,.2-.81,8.45c-.39,4.06-2.71,5.71-6.13,5.38-3.42-.33-5.38-2.39-4.99-6.45Z" fill="#1d1d1b"/><path d="M280.39,128.92c-.27,2.82-2.61,3.93-5.43,3.66l-6.47-.62,1.37-14.18,6.52,.63c2.38,.23,4.46,1.63,4.23,4.07-.15,1.51-1.08,2.45-2.34,2.9,1.4,.69,2.28,1.88,2.12,3.54Zm-2.16-.21c.16-1.66-1.05-2.54-2.79-2.71l-4.27-.41-.47,4.86,4.42,.43c1.57,.15,2.95-.48,3.11-2.16Zm-6.5-9.04l-.41,4.22,4.52,.44c1.21,.12,2.45-.47,2.6-2.06,.12-1.23-.99-2.04-2.2-2.16l-4.52-.44Z" fill="#1d1d1b"/><path d="M293.24,132.43l-.18,1.89-10.29-.99,1.37-14.18,10.1,.97-.18,1.89-8.06-.78-.38,3.9,6.54,.63-.18,1.89-6.54-.63-.44,4.61,8.24,.79Z" fill="#1d1d1b"/><path d="M306.47,135.52v.09s-2.35-.23-2.35-.23l-3.16-6.45-3.16-.3-.59,6.09-2.04-.2,1.37-14.18,6.26,.6c2.55,.25,4.62,1.74,4.36,4.5-.23,2.36-1.96,3.5-4.05,3.62l3.37,6.45Zm-8.5-8.59l4.22,.41c1.42,.14,2.66-.49,2.82-2.1,.15-1.61-.95-2.46-2.37-2.59l-4.22-.41-.45,4.69Z" fill="#1d1d1b"/></g><g><path d="M147.7,143.1c-2.31-.22-4.31-1.77-4.02-4.83l.09-.98,2.04,.2-.1,1.04c-.18,1.85,.94,2.69,2.15,2.8,1.29,.12,2.55-.48,2.73-2.33l.95-10.02,2.04,.2-.96,9.97c-.28,3.06-2.54,4.2-4.93,3.97Z" fill="#1d1d1b"/><path d="M163.9,140.8l-6.62-.64-1.65,3.5-1.95-.19,6.49-13.69,2.74,.26,3.95,14.69-1.95-.19-1.01-3.76Zm-.52-1.96l-1.99-7.33-3.23,6.83,5.22,.5Z" fill="#1d1d1b"/><path d="M174.41,132.71c-1.55-.15-2.93,.48-3.06,1.88-.14,1.42,.74,2.04,3.16,2.69l.26,.06c3.2,.9,4.62,2.12,4.4,4.43-.23,2.38-2.44,4.12-5.69,3.8-3.25-.31-5.3-2.29-5.15-5.19l2.04,.2c-.04,1.83,1.29,3.08,3.33,3.28,1.95,.19,3.23-.64,3.36-2.04,.13-1.4-.78-2-2.92-2.61l-.2-.06c-3.28-.87-4.94-2.02-4.69-4.59,.25-2.55,2.64-3.83,5.4-3.56,2.87,.28,4.87,2.13,4.75,4.6l-2.02-.19c.02-1.41-1.19-2.52-2.97-2.69Z" fill="#1d1d1b"/><path d="M187.55,146.94c-3.63-.35-6.52-3.01-6.05-7.93,.47-4.9,3.82-6.98,7.45-6.63,3.63,.33,6.52,2.99,6.05,7.93-.46,4.92-3.82,6.98-7.45,6.63Zm5.3-6.84c.37-3.8-1.55-5.7-4.06-5.95-2.5-.24-4.76,1.26-5.13,5.06-.37,3.8,1.57,5.71,4.07,5.95,2.51,.24,4.76-1.26,5.12-5.06Z" fill="#1d1d1b"/><path d="M210.77,134.67l-1.37,14.18-2.38-.23-6.72-12.04-1.09,11.29-1.95-.19,1.37-14.18,2.38,.23,6.72,12.04,1.09-11.29,1.95,.19Z" fill="#1d1d1b"/><path d="M229.32,146.59c-.27,2.82-2.61,3.93-5.43,3.66l-6.47-.62,1.37-14.18,6.52,.63c2.38,.23,4.46,1.63,4.23,4.07-.15,1.51-1.08,2.45-2.34,2.9,1.4,.69,2.28,1.88,2.12,3.55Zm-2.16-.21c.16-1.67-1.05-2.54-2.79-2.71l-4.27-.41-.47,4.86,4.42,.43c1.57,.15,2.95-.48,3.11-2.16Zm-6.5-9.04l-.41,4.22,4.52,.43c1.21,.12,2.45-.47,2.6-2.06,.12-1.23-.99-2.04-2.2-2.16l-4.52-.43Z" fill="#1d1d1b"/><path d="M243,151.99v.09s-2.35-.23-2.35-.23l-3.16-6.45-3.16-.3-.59,6.09-2.04-.2,1.37-14.18,6.26,.6c2.55,.25,4.62,1.74,4.36,4.5-.23,2.36-1.96,3.5-4.05,3.62l3.37,6.45Zm-8.51-8.59l4.22,.41c1.42,.14,2.66-.49,2.82-2.09,.15-1.61-.95-2.46-2.37-2.59l-4.22-.41-.45,4.69Z" fill="#1d1d1b"/><path d="M251.66,153.11c-3.63-.35-6.52-3.01-6.05-7.93,.47-4.9,3.82-6.98,7.45-6.63,3.63,.33,6.53,3,6.05,7.93-.46,4.92-3.82,6.98-7.45,6.63Zm5.3-6.84c.37-3.8-1.55-5.7-4.07-5.95-2.5-.24-4.76,1.26-5.12,5.06-.37,3.8,1.57,5.71,4.07,5.95,2.51,.24,4.76-1.26,5.12-5.06Z" fill="#1d1d1b"/><path d="M280.48,141.38l-5.45,13.79-2.08-.2-2.45-11.86-4.57,11.18-2.08-.2-2.81-14.58,2,.19,2.15,11.58,4.56-10.94,2,.19,2.49,11.62,4.22-10.97,2,.19Z" fill="#1d1d1b"/><path d="M294.59,142.74l-1.37,14.18-2.38-.23-6.72-12.04-1.09,11.29-1.95-.19,1.37-14.18,2.38,.23,6.72,12.04,1.09-11.29,1.95,.19Z" fill="#1d1d1b"/></g><g><path d="M157.75,152.14l-1.37,14.18-1.93-.19,1.08-11.18-5.14,10.79-1.99-.19-3.07-11.92-1.11,11.52-1.93-.19,1.37-14.18,2.99,.29,3.07,11.96,5.27-11.15,2.76,.27Z" fill="#1d1d1b"/><path d="M168.53,163.83l-6.62-.64-1.65,3.5-1.95-.19,6.49-13.69,2.74,.26,3.95,14.69-1.95-.19-1.01-3.76Zm-.52-1.96l-1.99-7.33-3.23,6.83,5.22,.5Z" fill="#1d1d1b"/><path d="M184.72,168.96v.09s-2.35-.23-2.35-.23l-3.16-6.45-3.16-.3-.59,6.09-2.04-.2,1.37-14.18,6.26,.6c2.55,.25,4.62,1.74,4.36,4.5-.23,2.36-1.96,3.5-4.05,3.62l3.37,6.45Zm-8.51-8.59l4.22,.41c1.42,.14,2.66-.49,2.82-2.09,.15-1.61-.95-2.46-2.36-2.59l-4.22-.41-.45,4.69Z" fill="#1d1d1b"/><path d="M198.3,165.11l2.02,.19c-.84,3.76-3.88,5.07-6.89,4.78-3.65-.35-6.58-3.02-6.11-7.94s3.86-6.98,7.51-6.62c2.99,.29,5.73,2.15,5.85,6l-2.02-.19c-.22-2.66-2.05-3.84-4-4.03-2.53-.24-4.82,1.27-5.18,5.05s1.59,5.71,4.12,5.95c1.95,.19,3.97-.63,4.7-3.19Z" fill="#1d1d1b"/><path d="M218.63,162.28c-.27,2.8-2.47,4.04-5.36,3.76l-3.82-.37-.55,5.71-2.04-.2,1.37-14.18,5.86,.56c2.89,.28,4.82,1.92,4.55,4.71Zm-2.16-.21c.16-1.63-.81-2.64-2.55-2.8l-3.82-.37-.49,5.07,3.82,.37c1.74,.17,2.89-.64,3.04-2.26Z" fill="#1d1d1b"/><path d="M223.2,158.45l-1.37,14.18-2.04-.2,1.37-14.18,2.04,.2Z" fill="#1d1d1b"/><path d="M235.03,171.99l-.18,1.89-9.53-.92,1.37-14.18,2.04,.2-1.18,12.29,7.49,.72Z" fill="#1d1d1b"/><path d="M249.97,168.05l-.7,7.22-1.51-.15,.24-2.48c-1.16,1.74-3.23,2.38-5.36,2.18-3.63-.35-6.66-3.03-6.18-7.94s3.9-6.97,7.64-6.61c3.29,.32,5.74,2.23,6,5.69l-2-.19c-.29-2.3-1.95-3.51-4.16-3.72-2.63-.25-4.95,1.24-5.31,5.04-.37,3.8,1.68,5.72,4.2,5.96,2.44,.23,4.75-.73,5.28-3.46l-4.65-.45,.16-1.7,6.37,.61Z" fill="#1d1d1b"/><path d="M261.01,172.74l-6.62-.64-1.65,3.5-1.95-.19,6.49-13.69,2.74,.26,3.95,14.69-1.95-.19-1.01-3.76Zm-.52-1.96l-1.99-7.33-3.23,6.83,5.22,.5Z" fill="#1d1d1b"/><path d="M274.57,174.04l-6.62-.64-1.65,3.5-1.95-.19,6.49-13.69,2.74,.26,3.95,14.69-1.95-.19-1.01-3.76Zm-.52-1.96l-1.99-7.33-3.23,6.83,5.22,.5Z" fill="#1d1d1b"/><path d="M290.76,179.17v.09s-2.35-.23-2.35-.23l-3.16-6.45-3.16-.3-.59,6.09-2.04-.2,1.37-14.18,6.26,.6c2.55,.25,4.62,1.74,4.36,4.5-.23,2.36-1.96,3.5-4.05,3.62l3.37,6.45Zm-8.51-8.59l4.22,.41c1.42,.14,2.66-.49,2.82-2.09,.16-1.61-.95-2.46-2.36-2.59l-4.22-.41-.45,4.69Z" fill="#1d1d1b"/><path d="M306.02,173.37c-.48,4.99-3.96,7-7.89,6.61l-4.92-.47,1.37-14.18,4.94,.47c3.92,.36,6.95,3,6.5,7.57Zm-2.16-.21c.32-3.35-1.73-5.21-4.53-5.47l-2.89-.28-1,10.4,2.87,.28c2.82,.27,5.19-1.16,5.55-4.92Z" fill="#1d1d1b"/></g><g><path d="M155.59,174.52l-1.37,14.18-1.93-.19,1.08-11.18-5.14,10.78-1.99-.19-3.07-11.92-1.11,11.52-1.93-.19,1.37-14.18,2.99,.29,3.07,11.96,5.27-11.15,2.76,.27Z" fill="#1d1d1b"/><path d="M169.3,175.84v.09s-5.65,7.59-5.65,7.59l-.58,6.03-2.04-.2,.58-6.03-4.06-8.52v-.1s2.24,.21,2.24,.21l3.11,6.71,4.28-6,2.12,.2Z" fill="#1d1d1b"/><path d="M181.2,191.2v.09s-2.35-.23-2.35-.23l-3.16-6.45-3.16-.3-.59,6.09-2.04-.2,1.37-14.18,6.26,.6c2.55,.25,4.62,1.74,4.36,4.5-.23,2.36-1.96,3.5-4.05,3.62l3.37,6.45Zm-8.51-8.59l4.22,.41c1.42,.14,2.66-.49,2.82-2.1,.15-1.61-.95-2.46-2.36-2.59l-4.22-.41-.45,4.69Z" fill="#1d1d1b"/><path d="M187.06,177.55l-1.37,14.18-2.04-.2,1.37-14.18,2.04,.2Z" fill="#1d1d1b"/><path d="M197.85,189.24l-6.62-.64-1.65,3.51-1.95-.19,6.49-13.69,2.74,.26,3.95,14.69-1.95-.19-1.01-3.76Zm-.52-1.96l-1.99-7.33-3.23,6.83,5.22,.5Z" fill="#1d1d1b"/><path d="M218.19,180.54l-1.37,14.18-1.93-.19,1.08-11.18-5.14,10.78-1.99-.19-3.07-11.92-1.11,11.52-1.93-.19,1.37-14.18,2.99,.29,3.07,11.96,5.27-11.15,2.76,.27Z" fill="#1d1d1b"/><path d="M238.29,182.48l-1.37,14.18-2.04-.2,.64-6.64-8-.77-.64,6.64-2.04-.2,1.37-14.18,2.04,.2-.54,5.65,8,.77,.54-5.65,2.04,.2Z" fill="#1d1d1b"/><path d="M246.61,197.79c-3.63-.35-6.52-3.01-6.05-7.93,.47-4.9,3.82-6.98,7.45-6.63,3.63,.33,6.52,2.99,6.05,7.93-.45,4.92-3.82,6.98-7.45,6.63Zm5.3-6.84c.37-3.8-1.55-5.7-4.07-5.95-2.5-.24-4.76,1.26-5.12,5.06-.37,3.8,1.57,5.71,4.07,5.95,2.51,.24,4.76-1.26,5.12-5.06Z" fill="#1d1d1b"/><path d="M266.05,197.56l-.18,1.89-9.53-.92,1.37-14.18,2.04,.2-1.18,12.29,7.49,.72Z" fill="#1d1d1b"/><path d="M283.25,186.81l-1.37,14.18-1.93-.19,1.08-11.18-5.14,10.79-1.99-.19-3.07-11.92-1.11,11.52-1.93-.19,1.37-14.18,2.99,.29,3.07,11.96,5.27-11.15,2.76,.27Z" fill="#1d1d1b"/><path d="M295.83,200.43l-.18,1.89-10.29-.99,1.37-14.18,10.1,.97-.18,1.89-8.06-.78-.38,3.9,6.54,.63-.18,1.89-6.54-.63-.44,4.61,8.25,.79Z" fill="#1d1d1b"/></g><g><path d="M143.61,197.49c-1.55-.15-2.93,.48-3.06,1.88-.14,1.42,.74,2.04,3.16,2.69l.26,.06c3.2,.9,4.62,2.12,4.4,4.43-.23,2.38-2.44,4.12-5.69,3.8s-5.3-2.29-5.15-5.19l2.04,.2c-.04,1.83,1.29,3.08,3.33,3.28,1.95,.19,3.23-.64,3.36-2.04,.13-1.4-.78-2-2.92-2.61l-.2-.06c-3.28-.87-4.94-2.02-4.69-4.59,.25-2.55,2.64-3.83,5.4-3.56,2.87,.28,4.87,2.13,4.75,4.6l-2.02-.2c.02-1.41-1.19-2.52-2.97-2.69Z" fill="#1d1d1b"/><path d="M159.21,208.1l-6.62-.64-1.65,3.5-1.95-.19,6.49-13.69,2.74,.26,3.95,14.69-1.95-.19-1.01-3.76Zm-.52-1.96l-1.99-7.33-3.23,6.83,5.22,.5Z" fill="#1d1d1b"/><path d="M173.81,211.26l-.18,1.89-9.53-.92,1.37-14.18,2.04,.2-1.18,12.29,7.49,.72Z" fill="#1d1d1b"/><path d="M178.97,199.35l-1.37,14.18-2.04-.2,1.37-14.18,2.04,.2Z" fill="#1d1d1b"/><path d="M201.08,201.48l-1.37,14.18-1.93-.19,1.08-11.18-5.14,10.79-1.99-.19-3.07-11.92-1.11,11.52-1.93-.19,1.37-14.18,2.99,.29,3.07,11.96,5.27-11.15,2.76,.27Z" fill="#1d1d1b"/><path d="M203.63,210.25l.81-8.45,2.04,.2-.83,8.64c-.26,2.7,1.02,4.09,3.14,4.29,2.12,.2,3.64-.91,3.9-3.61l.83-8.64,2.04,.2-.81,8.45c-.39,4.06-2.71,5.71-6.13,5.38-3.42-.33-5.38-2.39-4.99-6.45Z" fill="#1d1d1b"/><path d="M227.28,216.41l-.18,1.89-9.53-.92,1.37-14.18,2.04,.2-1.18,12.29,7.49,.72Z" fill="#1d1d1b"/><path d="M238.74,217.51l-.18,1.89-9.53-.92,1.37-14.18,2.04,.2-1.18,12.29,7.49,.72Z" fill="#1d1d1b"/><path d="M250.96,218.69l-.18,1.89-10.29-.99,1.37-14.18,10.1,.97-.18,1.89-8.06-.78-.38,3.9,6.54,.63-.18,1.89-6.54-.63-.44,4.62,8.24,.79Z" fill="#1d1d1b"/><path d="M264.19,221.77v.09s-2.35-.23-2.35-.23l-3.16-6.45-3.16-.3-.59,6.09-2.04-.2,1.37-14.18,6.26,.6c2.55,.25,4.62,1.74,4.36,4.5-.23,2.36-1.96,3.5-4.05,3.62l3.37,6.45Zm-8.51-8.59l4.22,.41c1.42,.14,2.66-.49,2.82-2.09,.16-1.61-.95-2.46-2.37-2.59l-4.22-.41-.45,4.69Z" fill="#1d1d1b"/></g><g><path d="M141.45,219.86c-1.55-.15-2.93,.48-3.06,1.88-.14,1.42,.74,2.04,3.16,2.69l.26,.06c3.2,.9,4.62,2.13,4.4,4.43-.23,2.38-2.44,4.12-5.69,3.8-3.25-.31-5.3-2.29-5.15-5.19l2.04,.2c-.04,1.83,1.29,3.08,3.33,3.28,1.95,.19,3.23-.64,3.37-2.04,.13-1.4-.78-2-2.92-2.61l-.2-.06c-3.28-.87-4.94-2.02-4.69-4.59,.25-2.55,2.64-3.83,5.4-3.56,2.87,.28,4.87,2.13,4.75,4.6l-2.02-.19c.02-1.41-1.19-2.52-2.97-2.69Z" fill="#1d1d1b"/><path d="M151.79,219.31l-1.37,14.18-2.04-.2,1.37-14.18,2.04,.2Z" fill="#1d1d1b"/><path d="M164.38,232.93l-.18,1.89-10.29-.99,1.37-14.18,10.1,.97-.18,1.89-8.06-.78-.38,3.9,6.54,.63-.18,1.89-6.54-.63-.44,4.61,8.24,.79Z" fill="#1d1d1b"/><path d="M179.98,229.05l-.7,7.22-1.51-.15,.24-2.48c-1.16,1.74-3.23,2.38-5.36,2.17-3.63-.35-6.66-3.03-6.18-7.94,.47-4.92,3.9-6.97,7.64-6.61,3.29,.32,5.74,2.23,6,5.69l-2-.19c-.29-2.3-1.95-3.51-4.16-3.72-2.63-.25-4.95,1.24-5.31,5.04-.37,3.8,1.68,5.72,4.2,5.96,2.44,.23,4.75-.73,5.28-3.46l-4.65-.45,.16-1.7,6.37,.61Z" fill="#1d1d1b"/><path d="M185.58,224.47l-.38,3.9,6.54,.63-.18,1.89-6.54-.63-.63,6.5-2.04-.2,1.37-14.18,10.1,.97-.18,1.89-8.05-.78Z" fill="#1d1d1b"/><path d="M205.68,238.72v.09s-2.35-.23-2.35-.23l-3.16-6.45-3.16-.3-.59,6.09-2.04-.2,1.37-14.18,6.26,.6c2.55,.25,4.62,1.74,4.36,4.5-.23,2.36-1.96,3.5-4.05,3.62l3.37,6.45Zm-8.51-8.59l4.22,.41c1.42,.14,2.66-.49,2.82-2.1,.15-1.61-.95-2.46-2.37-2.59l-4.22-.41-.45,4.69Z" fill="#1d1d1b"/><path d="M211.54,225.07l-1.37,14.18-2.04-.2,1.37-14.18,2.04,.2Z" fill="#1d1d1b"/><path d="M224.12,238.68l-.18,1.89-10.29-.99,1.37-14.18,10.1,.97-.18,1.89-8.06-.78-.38,3.9,6.54,.63-.18,1.89-6.54-.63-.44,4.61,8.24,.79Z" fill="#1d1d1b"/><path d="M238.86,234.65c-.48,4.99-3.96,7-7.89,6.61l-4.92-.47,1.37-14.18,4.94,.48c3.92,.36,6.94,3,6.5,7.57Zm-2.16-.21c.32-3.35-1.73-5.21-4.53-5.48l-2.89-.28-1,10.4,2.87,.28c2.82,.27,5.19-1.16,5.55-4.92Z" fill="#1d1d1b"/><path d="M257.55,239.63c-.27,2.82-2.61,3.93-5.43,3.66l-6.47-.62,1.37-14.18,6.52,.63c2.38,.23,4.46,1.63,4.23,4.07-.15,1.51-1.08,2.45-2.34,2.9,1.4,.69,2.28,1.88,2.12,3.55Zm-2.16-.21c.16-1.66-1.05-2.54-2.79-2.71l-4.27-.41-.47,4.86,4.42,.43c1.57,.15,2.95-.48,3.11-2.16Zm-6.5-9.04l-.41,4.22,4.52,.43c1.21,.12,2.45-.47,2.6-2.06,.12-1.23-.99-2.04-2.2-2.16l-4.52-.43Z" fill="#1d1d1b"/><path d="M270.4,243.14l-.18,1.89-10.29-.99,1.37-14.18,10.1,.97-.18,1.89-8.06-.78-.38,3.9,6.54,.63-.18,1.89-6.54-.63-.44,4.61,8.24,.79Z" fill="#1d1d1b"/><path d="M283.63,246.23v.09s-2.35-.23-2.35-.23l-3.16-6.45-3.16-.3-.59,6.09-2.04-.2,1.37-14.18,6.26,.6c2.55,.25,4.62,1.74,4.36,4.5-.23,2.36-1.96,3.5-4.05,3.62l3.37,6.45Zm-8.51-8.59l4.22,.41c1.42,.14,2.66-.49,2.82-2.09,.15-1.61-.95-2.46-2.37-2.59l-4.22-.41-.45,4.69Z" fill="#1d1d1b"/><path d="M299.59,233.54l-1.37,14.18-2.38-.23-6.72-12.04-1.09,11.29-1.95-.19,1.37-14.18,2.38,.23,6.72,12.04,1.09-11.29,1.95,.19Z" fill="#1d1d1b"/><path d="M307.91,248.85c-3.63-.35-6.52-3.01-6.05-7.93,.47-4.9,3.82-6.98,7.45-6.63,3.63,.33,6.53,2.99,6.05,7.93-.45,4.92-3.82,6.98-7.45,6.63Zm5.3-6.84c.37-3.8-1.55-5.7-4.07-5.95-2.5-.24-4.76,1.26-5.12,5.06-.37,3.8,1.57,5.71,4.07,5.95,2.51,.24,4.76-1.26,5.12-5.06Z" fill="#1d1d1b"/></g><g><path d="M145.86,241.32l-6.4,13.7-2.17-.21-3.76-14.68,2.1,.2,3.05,11.9,5.17-11.11,2,.19Z" fill="#1d1d1b"/><path d="M156.93,254.79l-.18,1.89-10.29-.99,1.37-14.18,10.1,.97-.18,1.89-8.06-.78-.38,3.9,6.54,.63-.18,1.89-6.54-.63-.44,4.62,8.24,.79Z" fill="#1d1d1b"/><path d="M162.27,242.9l-1.37,14.18-2.04-.2,1.37-14.18,2.04,.2Z" fill="#1d1d1b"/><path d="M175.95,246.13l-4.88-.47-1.18,12.29-2.04-.2,1.18-12.29-5.1-.49,.18-1.89,12.03,1.16-.18,1.89Z" fill="#1d1d1b"/><path d="M186.77,246.81c-1.55-.15-2.93,.48-3.06,1.88-.14,1.42,.74,2.04,3.16,2.69l.26,.06c3.2,.9,4.62,2.12,4.4,4.43-.23,2.38-2.44,4.12-5.69,3.8-3.25-.31-5.3-2.29-5.15-5.19l2.04,.2c-.04,1.83,1.29,3.08,3.33,3.28,1.95,.19,3.23-.64,3.36-2.04,.13-1.4-.78-2-2.92-2.61l-.2-.06c-3.28-.87-4.94-2.02-4.69-4.59,.25-2.55,2.64-3.83,5.4-3.56,2.87,.28,4.87,2.13,4.75,4.6l-2.02-.2c.02-1.41-1.19-2.52-2.97-2.69Z" fill="#1d1d1b"/><path d="M204.83,256.07l2.02,.19c-.84,3.75-3.89,5.07-6.89,4.78-3.65-.35-6.58-3.02-6.11-7.94,.47-4.92,3.86-6.98,7.51-6.62,2.99,.29,5.73,2.15,5.85,6l-2.02-.19c-.22-2.66-2.05-3.84-4-4.03-2.53-.24-4.82,1.27-5.18,5.05s1.59,5.71,4.12,5.95c1.95,.19,3.97-.63,4.7-3.19Z" fill="#1d1d1b"/><path d="M222.3,248.68l-1.37,14.18-2.04-.2,.64-6.64-8-.77-.64,6.64-2.04-.2,1.37-14.18,2.04,.2-.54,5.65,8,.77,.54-5.65,2.04,.2Z" fill="#1d1d1b"/><path d="M239.87,250.38l-1.37,14.18-1.93-.19,1.08-11.18-5.14,10.78-1.99-.19-3.07-11.92-1.11,11.52-1.93-.19,1.37-14.18,2.99,.29,3.07,11.96,5.27-11.15,2.76,.27Z" fill="#1d1d1b"/><path d="M245.39,250.91l-1.37,14.18-2.04-.2,1.37-14.18,2.04,.2Z" fill="#1d1d1b"/><path d="M260.31,259.29c-.48,4.99-3.96,7.01-7.89,6.61l-4.92-.47,1.37-14.18,4.94,.48c3.92,.36,6.94,3,6.5,7.57Zm-2.16-.21c.32-3.35-1.73-5.21-4.53-5.47l-2.89-.28-1,10.4,2.88,.28c2.82,.27,5.19-1.16,5.55-4.92Z" fill="#1d1d1b"/><path d="M272.27,265.9l-.18,1.89-9.53-.92,1.37-14.18,2.04,.2-1.18,12.29,7.49,.72Z" fill="#1d1d1b"/><path d="M284.49,267.08l-.18,1.89-10.29-.99,1.37-14.18,10.1,.97-.18,1.89-8.06-.78-.38,3.9,6.54,.63-.18,1.89-6.54-.63-.44,4.62,8.25,.79Z" fill="#1d1d1b"/><path d="M289.84,255.19l-1.37,14.18-2.04-.2,1.37-14.18,2.04,.2Z" fill="#1d1d1b"/><path d="M303.52,258.41l-4.88-.47-1.18,12.29-2.04-.2,1.18-12.29-5.11-.49,.18-1.89,12.03,1.16-.18,1.89Z" fill="#1d1d1b"/><path d="M317.67,257.87l-1.37,14.18-2.38-.23-6.72-12.04-1.09,11.29-1.95-.19,1.37-14.18,2.38,.23,6.72,12.04,1.09-11.29,1.95,.19Z" fill="#1d1d1b"/><path d="M330.26,271.49l-.18,1.89-10.29-.99,1.37-14.18,10.1,.97-.18,1.89-8.05-.78-.38,3.9,6.54,.63-.18,1.89-6.54-.63-.44,4.62,8.24,.79Z" fill="#1d1d1b"/><path d="M343.49,274.57v.09s-2.35-.23-2.35-.23l-3.16-6.45-3.16-.3-.59,6.09-2.04-.2,1.37-14.18,6.26,.6c2.55,.25,4.62,1.74,4.36,4.5-.23,2.36-1.96,3.49-4.05,3.62l3.37,6.45Zm-8.5-8.59l4.22,.41c1.42,.14,2.66-.49,2.82-2.09,.16-1.61-.95-2.46-2.37-2.59l-4.22-.41-.45,4.69Z" fill="#1d1d1b"/></g></g></svg>